<svg width="274" height="39" viewBox="0 0 274 39" fill="none" xmlns="http://www.w3.org/2000/svg">
<g clip-path="url(#clip0)">
<path d="M99.414 7.02261L111.759 19.4969L99.414 31.9774L87.0687 19.5031L99.414 7.02261ZM99.414 0L80.1125 19.5031L99.414 39.0062L118.716 19.5031L99.414 0Z" fill="#01FFFF"/>
<path d="M31.1368 6.25264V32.7473H4.91601V6.25264H31.1368ZM36.0528 1.28528H0V37.7147H36.0528V1.28528Z" fill="#01FFFF"/>
<path d="M269.084 6.25264V32.7473H249.819L259.455 23.0113L262.933 19.4969L259.455 15.9825L249.819 6.24643H269.084V6.25264ZM274 1.28528H237.947L255.971 19.4969L237.947 37.7085H274V1.28528Z" fill="#01FFFF"/>
<path d="M181.616 23.6322C183.988 23.6322 185.917 25.5819 185.917 27.9787V33.1137H170.739V27.9787C170.739 25.5819 172.669 23.6322 175.041 23.6322H181.616ZM181.616 18.6649H175.041C169.953 18.6649 165.823 22.8374 165.823 27.9787V38.081H190.833V27.9787C190.833 22.8374 186.71 18.6649 181.616 18.6649Z" fill="#01FFFF"/>
<path d="M185.917 6.25264V11.3877C185.917 13.7844 183.988 15.7341 181.616 15.7341H175.041C172.669 15.7341 170.739 13.7844 170.739 11.3877V6.25264H185.917ZM190.833 1.28528H165.823V11.3877C165.823 16.5289 169.953 20.7015 175.041 20.7015H181.616C186.704 20.7015 190.833 16.5289 190.833 11.3877V1.28528Z" fill="#01FFFF"/>
</g>
<defs>
<clipPath id="clip0">
<rect width="274" height="39" fill="white"/>
</clipPath>
</defs>
</svg>
